<svg xmlns="http://www.w3.org/2000/svg" width="960" height="720" viewBox="0 0 960 720">
<defs><linearGradient id="bg" x2="1" y2="1"><stop stop-color="#fff3f7"/><stop offset="1" stop-color="#efd0da"/></linearGradient><linearGradient id="berry" x2=".8" y2="1"><stop stop-color="#c65778"/><stop offset="1" stop-color="#861437"/></linearGradient><radialGradient id="cream" cx=".35" cy=".25" r=".8"><stop stop-color="#fffdfa"/><stop offset="1" stop-color="#e9cbd5"/></radialGradient></defs>
<path fill="url(#bg)" d="M0 0h960v720H0z"/><circle cx="805" cy="88" r="234" fill="#fff9fb" opacity=".36"/><path d="M30 542h900M480 90v540" stroke="#fff9fb" stroke-width="7"/><ellipse cx="480" cy="365" rx="300" ry="230" fill="none" stroke="#fff9fb" stroke-width="7"/><ellipse cx="497" cy="575" rx="183" ry="25" fill="#861437" opacity=".12"/><g transform="rotate(-18 480 359)"><circle cx="480" cy="359" r="183" fill="url(#berry)"/><g fill="none" stroke="#63112c" stroke-width="8"><circle cx="480" cy="359" r="180"/><path d="M298 359h364M480 177v364M365 216c160 67 160 220 0 286M595 216c-160 67-160 220 0 286"/></g><path d="M371 259q40-42 94-48" fill="none" stroke="#ffdce5" opacity=".4" stroke-width="12" stroke-linecap="round"/></g></svg>